<svg width="30" height="30" viewBox="0 0 30 30" fill="none" xmlns="http://www.w3.org/2000/svg">
<path d="M0.46875 15C0.46875 23.0273 6.97266 29.5312 15 29.5312C23.0273 29.5312 29.5312 23.0273 29.5312 15C29.5312 6.97266 23.0273 0.46875 15 0.46875C6.97266 0.46875 0.46875 6.97266 0.46875 15ZM26.7188 15C26.7188 21.4746 21.4746 26.7188 15 26.7188C8.52539 26.7188 3.28125 21.4746 3.28125 15C3.28125 8.52539 8.52539 3.28125 15 3.28125C21.4746 3.28125 26.7188 8.52539 26.7188 15ZM22.5 13.8281V16.1719C22.5 16.5586 22.1836 16.875 21.7969 16.875H15V20.8008C15 21.4277 14.2441 21.7383 13.7988 21.2988L7.99805 15.498C7.72266 15.2227 7.72266 14.7773 7.99805 14.502L13.7988 8.70117C14.2441 8.25586 15 8.57227 15 9.19922V13.125H21.7969C22.1836 13.125 22.5 13.4414 22.5 13.8281Z" fill="#505050"/>
</svg>
