<svg width="59" height="60" viewBox="0 0 59 60" fill="none" xmlns="http://www.w3.org/2000/svg">
<path d="M42.3486 27.8906L22.2965 15.3516C20.4963 14.3203 18.2291 15.6445 18.2291 17.8125V42.1875C18.2291 44.3438 20.4849 45.6797 22.2965 44.6484L42.3486 32.8125C44.217 31.7461 44.217 28.9688 42.3486 27.8906ZM57.4218 30C57.4218 13.9453 44.7753 0.9375 29.1666 0.9375C13.5579 0.9375 0.911377 13.9453 0.911377 30C0.911377 46.0547 13.5579 59.0625 29.1666 59.0625C44.7753 59.0625 57.4218 46.0547 57.4218 30ZM6.38013 30C6.38013 17.0508 16.5771 6.5625 29.1666 6.5625C41.7561 6.5625 51.953 17.0508 51.953 30C51.953 42.9492 41.7561 53.4375 29.1666 53.4375C16.5771 53.4375 6.38013 42.9492 6.38013 30Z" fill="white"/>
</svg>
